# AST/ASF file generated using VICON BodyLanguage
# -----------------------------------------------
:version 1.10
:name VICON
:units
  mass 1.0
  length 0.45
  angle deg
:documentation
   .ast/.asf automatically generated from VICON data using
   VICON BodyBuilder and BodyLanguage model FoxedUp or BRILLIANT.MOD
:root
   order TX TY TZ RX RY RZ
   axis XYZ
   position 0 0 0  
   orientation 0 0 0 
:bonedata
  begin
     id 1 
     name lhipjoint
     direction 0.630305 -0.712092 0.309259 
     length 2.29033 
     axis 0 0 0  XYZ
  end
  begin
     id 2 
     name lfemur
     direction 0.34202 -0.939693 0  
     length 6.43538  
     axis 0 0 20  XYZ
    dof rx ry rz
    limits (-160.0 20.0)
           (-70.0 70.0)
           (-60.0 70.0)
  end
  begin
     id 3 
     name ltibia
     direction 0.34202 -0.939693 0   
     length 7.43097   
     axis 0 0 20   XYZ
    dof rx
    limits (-10.0 170.0)
  end
  begin
     id 4 
     name lfoot
     direction 0.0334653 -0.0919451 0.995202   
     length 1.78438   
     axis -90 7.62852e-016 20   XYZ
    dof rx rz
    limits (-45.0 90.0)
           (-70.0 20.0)
  end
  begin
     id 5 
     name ltoes
     direction 1.53535e-011 -4.21933e-011 1   
     length 0.90832   
     axis -90 7.62852e-016 20   XYZ
    dof rx
    limits (-90.0 20.0)
  end
  begin
     id 6 
     name rhipjoint
     direction -0.682059 -0.67077 0.291312   
     length 2.43143  
     axis 0 0 0  XYZ 
  end
  begin
     id 7 
     name rfemur
     direction -0.34202 -0.939693 0   
     length 6.63488   
     axis 0 0 -20   XYZ
    dof rx ry rz
    limits (-160.0 20.0)
           (-70.0 70.0)
           (-70.0 60.0)
  end
  begin
     id 8 
     name rtibia
     direction -0.34202 -0.939693 0   
     length 6.86532   
     axis 0 0 -20   XYZ
    dof rx
    limits (-10.0 170.0)
 end
 begin
     id 9 
     name rfoot
     direction -0.105199 -0.289033 0.951521   
     length 1.77126  
     axis -90 -7.62852e-016 -20   XYZ
    dof rx rz
    limits (-45.0 90.0)
           (-20.0 70.0)
  end
  begin
     id 10 
     name rtoes
     direction -1.53551e-011 -4.21978e-011 1   
     length 0.889273   
     axis -90 -7.62852e-016 -20   XYZ
    dof rx
    limits (-90.0 20.0)
  end
  begin
     id 11 
     name lowerback
     direction -0.0514305 0.998089 0.034245   
     length 2.02077   
     axis 0 0 0   XYZ
    dof rx ry rz
    limits (-20.0 45.0)
           (-30.0 30.0)
           (-30.0 30.0)
  end
  begin
     id 12 
     name upperback
     direction 0.0203189 0.999449 -0.0262315   
     length 2.01413   
     axis 0 0 0   XYZ
    dof rx ry rz
    limits (-20.0 45.0)
           (-30.0 30.0)
           (-30.0 30.0)
  end
  begin
     id 13 
     name thorax
     direction 0.0452736 0.998142 -0.0407729   
     length 2.02986   
     axis 0 0 0   XYZ
    dof rx ry rz
    limits (-20.0 45.0)
           (-30.0 30.0)
           (-30.0 30.0)
  end
  begin
     id 14 
     name lowerneck
     direction -0.0180464 0.999645 -0.0195774   
     length 1.59034   
     axis 0 0 0   XYZ
    dof rx ry rz
    limits (-20.0 45.0)
           (-30.0 30.0)
           (-30.0 30.0)
  end
  begin
     id 15 
     name upperneck
     direction 0.0732272 0.979935 -0.18538   
     length 1.57486   
     axis 0 0 0   XYZ
    dof rx ry rz
    limits (-20.0 45.0)
           (-30.0 30.0)
           (-30.0 30.0)
  end
  begin
     id 16
     name head
     direction 0.0252963 0.997909 -0.059472  
     length 1.60334  
     axis 0 0 0   XYZ
    dof rx ry rz
    limits (-20.0 45.0)
           (-30.0 30.0)
           (-30.0 30.0)
  end
  begin
     id 17 
     name lclavicle
     direction 0.943819 0.330449 0.00315172  
     length 3.50322  
     axis 0 0 0   XYZ
    dof ry rz
    limits (-20.0 10.0)
           (0.0 20.0)
  end
  begin
     id 18 
     name lhumerus
     direction 1 -4.48949e-011 2.22502e-028   
     length 4.63208   
     axis 180 -30 -90   XYZ
    dof rx ry rz
    limits (-60.0 90.0)
           (-90.0 90.0)
           (-90.0 90.0)
  end
  begin
     id 19
     name lradius
     direction 1 -4.48967e-011 -4.10197e-027   
     length 3.41924   
     axis 180 -30 -90   XYZ
    dof rx
    limits (-10.0 170.0)
  end
  begin
     id 20
     name lwrist
     direction 1 -4.48987e-011 -1.24264e-027   
     length 1.70962   
     axis 2.50585e-015 90 90   XYZ
    dof ry
    limits (-180.0 0.0)
 end
  begin
     id 21 
     name lhand
     direction 1 -4.48983e-011 -2.48528e-027   
     length 0.62537   
     axis 1.58582e-015 90 90   XYZ
    dof rx rz
    limits (-90.0 90.0)
           (-45.0 45.0)
  end
  begin
     id 22 
     name lfingers
     direction 1 -4.48896e-011 -4.97056e-027   
     length 0.50419   
     axis 3.17164e-015 90 90   XYZ
    dof rx
    limits (0.0 90.0)
  end
  begin
     id 23
     name lthumb
     direction 0.707107 -6.34803e-011 0.707107   
     length 0.723919   
     axis -90 45 2.85299e-015   XYZ
    dof rx rz
    limits (-45.0 45.0)
           (-45.0 45.0)
  end
  begin
     id 24 
     name rclavicle
     direction -0.964499 0.260664 -0.0423695   
     length 3.91997  
     axis 0 0 0   XYZ 
    dof ry rz
    limits (-10.0 20.0)
           (-20.0 0.0)
  end
  begin
     id 25 
     name rhumerus
     direction -1 -4.48957e-011 -1.98656e-027  
     length 4.4064   
     axis 180 30 90   XYZ
    dof rx ry rz
    limits (-90.0 60.0)
           (-90.0 90.0)
           (-90.0 90.0)
  end
  begin
     id 26 
     name rradius
     direction -1 -4.48968e-011 1.96972e-027   
     length 3.44675   
     axis 180 30 90   XYZ
    dof rx
    limits (-10.0 170.0)
  end
  begin
     id 27 
     name rwrist
     direction -1 -4.48974e-011 -1.24264e-027   
     length 1.72338   
     axis 2.50585e-015 -90 -90   XYZ
    dof ry
    limits (-180.0 0.0)
  end
  begin
     id 28
     name rhand
     direction -1 -4.48901e-011 -2.48528e-027   
     length 0.513674   
     axis 1.58582e-015 -90 -90   XYZ
    dof rx rz
    limits (-90.0 90.0)
           (-45.0 45.0)
  end
  begin
     id 29
     name rfingers
     direction -1 -4.48946e-011 -4.97056e-027   
     length 0.414137   
     axis 3.17164e-015 -90 -90   XYZ
    dof rx
    limits (0.0 90.0)
  end
  begin
     id 30
     name rthumb
     direction -0.707107 -6.34859e-011 0.707107   
     length 0.59462   
     axis -90 -45 -2.85299e-015   XYZ
    dof rx rz
    limits (-45.0 45.0)
           (-45.0 45.0)
  end
:hierarchy
  begin
    root lhipjoint rhipjoint lowerback
    lhipjoint lfemur
    lfemur ltibia
    ltibia lfoot
    lfoot ltoes
    rhipjoint rfemur
    rfemur rtibia
    rtibia rfoot
    rfoot rtoes
    lowerback upperback
    upperback thorax
    thorax lowerneck lclavicle rclavicle
    lowerneck upperneck
    upperneck head
    lclavicle lhumerus
    lhumerus lradius
    lradius lwrist
    lwrist lhand lthumb
    lhand lfingers
    rclavicle rhumerus
    rhumerus rradius
    rradius rwrist
    rwrist rhand rthumb
    rhand rfingers
  end

#!OML:ASF E:\inclinewalkrobotboard\Project 1\Capture day 1\Session 1\subject1.ASF
:FULLY-SPECIFIED
:DEGREES
17
root 8.52444 8.35525 9.74299 -167.888 -54.6231 161.851
lowerback 30.6037 3.46814 1.60883
upperback 4.77429 5.03096 7.90523
thorax -11.3792 1.96319 5.78945
lowerneck -4.61717 5.12256 -2.77017
upperneck -21.9514 4.24572 -8.08613
head -5.78047 2.17525 -2.18968
rclavicle -8.74653e-014 -5.725e-014
rhumerus -1.7148 -23.659 -59.1841
rradius 50.151
rwrist -45.3884
rhand 0.747508 -18.1382
rfingers 7.12502
rthumb 26.3062 -46.3341
lclavicle -8.74653e-014 -5.725e-014
lhumerus 7.00544 31.0284 23.3276
lradius 119.496
lwrist -20.976
lhand -51.0005 -31.2472
lfingers 7.12502
lthumb -23.5491 -2.66894
rfemur -75.3264 -25.7698 -19.93
rtibia 112.532
rfoot -28.2399 24.6587
rtoes -46.5918
lfemur -59.8971 6.69385 -24.2791
ltibia 139.345
lfoot -37.9476 4.08727
ltoes -71.5897
18
root 8.52853 8.37156 9.72622 -167.938 -54.5575 161.997
lowerback 30.5713 3.50732 1.73077
upperback 4.75155 5.13337 8.04807
thorax -11.4082 2.00586 5.84028
lowerneck -4.55458 5.09139 -2.9525
upperneck -21.9987 4.1873 -8.09301
head -5.81453 2.1617 -2.1624
rclavicle 2.8625e-014 -8.26944e-014
rhumerus -1.45714 -23.6834 -59.0984
rradius 50.2999
rwrist -45.3366
rhand 0.915176 -18.2222
rfingers 7.12502
rthumb 26.4667 -46.3941
lclavicle 2.8625e-014 -8.26944e-014
lhumerus 6.92022 31.0128 23.2699
lradius 119.619
lwrist -20.6524
lhand -50.5774 -31.6419
lfingers 7.12502
lthumb -23.1432 -3.01206
rfemur -75.3673 -25.6634 -19.7474
rtibia 112.46
rfoot -26.9126 25.9542
rtoes -42.1979
lfemur -59.8722 7.12661 -23.8947
ltibia 139.187
lfoot -37.8326 3.66683
ltoes -71.5895
19
root 8.53093 8.39611 9.71255 -167.665 -54.4634 161.809
lowerback 30.5213 3.50513 1.70936
upperback 4.71669 5.13172 8.07192
thorax -11.4313 2.00908 5.87969
lowerneck -4.66968 5.08896 -3.09361
upperneck -21.9415 4.20139 -8.01385
head -5.78425 2.16895 -2.11053
rclavicle -4.29375e-014 -5.40694e-014
rhumerus -1.19207 -23.5568 -59.1293
rradius 50.4795
rwrist -45.3235
rhand 0.971942 -18.1484
rfingers 7.12502
rthumb 26.521 -46.312
lclavicle -4.29375e-014 -5.40694e-014
lhumerus 6.67156 31.0724 23.024
lradius 119.795
lwrist -20.3006
lhand -50.4746 -31.7033
lfingers 7.12502
lthumb -23.0446 -3.06111
rfemur -75.4445 -25.6226 -19.6948
rtibia 112.347
rfoot -27.1592 25.5862
rtoes -43.024
lfemur -59.8549 6.97675 -23.9618
ltibia 138.917
lfoot -37.7258 3.56264
ltoes -71.5905
20
root 8.52896 8.43628 9.70535 -166.952 -54.3665 161.096
lowerback 30.5005 3.43372 1.54463
upperback 4.63707 4.99276 7.89612
thorax -11.4912 1.95917 5.83097
lowerneck -4.7959 5.13094 -3.05971
upperneck -21.8245 4.29664 -7.91224
head -5.72473 2.2028 -2.08155
rclavicle -7.15625e-014 1.04958e-013
rhumerus -0.761278 -23.3952 -59.2858
rradius 50.4295
rwrist -45.5074
rhand 1.12054 -18.086
rfingers 7.12502
rthumb 26.6632 -46.2281
lclavicle -7.15625e-014 1.04958e-013
lhumerus 6.4076 31.1301 22.4543
lradius 119.954
lwrist -19.916
lhand -50.5054 -31.4614
lfingers 7.12502
lthumb -23.0741 -2.82289
rfemur -75.3053 -25.5957 -20.0442
rtibia 112.114
rfoot -28.2166 24.52
rtoes -46.1688
lfemur -59.7077 5.43848 -24.8494
ltibia 138.417
lfoot -37.6738 4.20899
ltoes -71.5935
21
root 8.52862 8.48235 9.69348 -166.852 -54.3083 161.078
lowerback 30.4962 3.39442 1.68698
upperback 4.59625 4.99106 7.87074
thorax -11.5176 1.95383 5.72652
lowerneck -4.74643 5.19797 -2.89877
upperneck -21.9191 4.35943 -8.01673
head -5.75249 2.22783 -2.14602
rclavicle 6.36111e-014 -5.40694e-014
rhumerus -0.435096 -23.4418 -59.4538
rradius 50.5031
rwrist -45.7695
rhand 1.12346 -17.9038
rfingers 7.12502
rthumb 26.666 -46.0455
lclavicle 6.36111e-014 -5.40694e-014
lhumerus 6.42715 31.1993 22.2629
lradius 120.039
lwrist -19.7665
lhand -50.5224 -31.3973
lfingers 7.12502
lthumb -23.0904 -2.76087
rfemur -75.0339 -25.1916 -20.02
rtibia 111.817
rfoot -27.8675 24.8025
rtoes -44.4982
lfemur -59.4746 4.88361 -24.8717
ltibia 137.946
lfoot -37.6155 4.2448
ltoes -71.6087
22
root 8.53027 8.53159 9.6756 -167.19 -54.2207 161.64
lowerback 30.3919 3.46637 1.97103
upperback 4.62869 5.17381 8.04931
thorax -11.449 2.02359 5.69954
lowerneck -4.84388 5.24518 -2.89035
upperneck -21.9061 4.40576 -8.13085
head -5.72752 2.2513 -2.18219
rclavicle -4.77083e-014 -1.90833e-014
rhumerus -0.0441341 -23.6359 -59.494
rradius 50.5133
rwrist -45.9489
rhand 1.54051 -17.9734
rfingers 7.12502
rthumb 27.0651 -46.0537
lclavicle -4.77083e-014 -1.90833e-014
lhumerus 6.79059 31.3417 22.567
lradius 119.953
lwrist -19.8642
lhand -50.615 -31.1726
lfingers 7.12502
lthumb -23.1792 -2.5473
rfemur -74.8834 -24.5378 -19.531
rtibia 111.501
rfoot -27.2754 25.0684
rtoes -41.8576
lfemur -59.3067 5.47379 -24.1475
ltibia 137.54
lfoot -37.5592 3.6612
ltoes -71.6206
23
root 8.52728 8.57929 9.65975 -166.945 -54.1253 161.503
lowerback 30.2666 3.48461 2.01429
upperback 4.64735 5.20719 8.1058
thorax -11.3803 2.03854 5.72818
lowerneck -4.956 5.26617 -2.86365
upperneck -21.9069 4.3999 -8.30436
head -5.70358 2.24889 -2.23829
rclavicle -7.95139e-015 2.54444e-014
rhumerus 0.428776 -23.9379 -59.6991
rradius 50.496
rwrist -45.5174
rhand -0.387093 -17.6432
rfingers 7.12502
rthumb 25.2196 -45.9967
lclavicle -7.95139e-015 2.54444e-014
lhumerus 7.0622 31.5423 22.6726
lradius 119.794
lwrist -19.874
lhand -50.6378 -30.9781
lfingers 7.12502
lthumb -23.2012 -2.35558
rfemur -74.7906 -24.4725 -19.3578
rtibia 111.219
rfoot -27.9267 24.2761
rtoes -43.9589
lfemur -59.0491 4.8918 -24.3333
ltibia 137.033
lfoot -37.6832 3.88878
ltoes -71.6213
24
root 8.52345 8.64595 9.65033 -166.453 -54.0255 161.08
lowerback 30.1883 3.45033 1.96239
upperback 4.61393 5.1497 8.0762
thorax -11.3799 2.01835 5.7479
lowerneck -4.95546 5.30836 -2.84192
upperneck -21.9875 4.43069 -8.37377
head -5.72583 2.26336 -2.26626
rclavicle -1.74931e-014 4.45278e-014
rhumerus 0.826889 -24.3534 -60.1069
rradius 50.6472
rwrist -44.7418
rhand 1.22758 -18.2544
rfingers 7.12502
rthumb 26.7657 -46.3809
lclavicle -1.74931e-014 4.45278e-014
lhumerus 7.17395 31.7221 22.7002
lradius 119.672
lwrist -19.8926
lhand -50.5705 -31.8775
lfingers 7.12502
lthumb -23.1366 -3.24684
rfemur -74.4041 -23.9021 -19.5458
rtibia 110.81
rfoot -28.8064 22.9147
rtoes -46.7363
lfemur -58.6552 3.65684 -25.0101
ltibia 136.3
lfoot -37.8475 4.64013
ltoes -71.6053
25
root 8.52788 8.70283 9.62953 -166.39 -53.8121 161.22
lowerback 30.1231 3.53216 1.96986
upperback 4.55476 5.2741 8.14373
thorax -11.4391 2.07956 5.77114
lowerneck -4.93386 5.34412 -2.9336
upperneck -22.0663 4.474 -8.32445
head -5.7585 2.28791 -2.23907
rclavicle -3.18055e-015 3.18055e-015
rhumerus 1.11438 -24.4062 -60.164
rradius 50.5373
rwrist -44.7016
rhand 1.36387 -18.6817
rfingers 7.12502
rthumb 26.8961 -46.7881
lclavicle -3.18055e-015 3.18055e-015
lhumerus 7.24108 31.7548 22.6974
lradius 119.627
lwrist -19.9711
lhand -50.613 -32.7246
lfingers 7.12502
lthumb -23.1773 -4.09904
rfemur -74.4702 -23.4905 -19.1413
rtibia 110.494
rfoot -28.6795 22.6243
rtoes -46.7518
lfemur -58.3859 4.27264 -24.6699
ltibia 135.686
lfoot -37.915 4.26816
ltoes -71.5865
